<svg xmlns="http://www.w3.org/2000/svg" viewBox="0 0 1200.54 570.74"><defs><style>.cls-1{fill:#010101;}.cls-2{fill:#3e52a3;}</style></defs><g id="Layer_2" data-name="Layer 2"><g id="Layer_1-2" data-name="Layer 1"><path class="cls-1" d="M121,292.09c3.19.41,6.39.77,9.59,1,1.6.11,3.2.22,4.79.25a30.14,30.14,0,0,0,4.75-.17h.1a3.22,3.22,0,0,0,.93-.14,7,7,0,0,0,1-.35,13.12,13.12,0,0,0,1.83-1,20.89,20.89,0,0,0,1.71-1.26c.55-.45,1.08-.93,1.6-1.41l.19.19c-.51.51-1,1-1.56,1.5a20.34,20.34,0,0,1-1.68,1.36,13.63,13.63,0,0,1-1.86,1.14,7.72,7.72,0,0,1-1,.43,3.66,3.66,0,0,1-1.18.2h.11a19.64,19.64,0,0,1-4.9.41,43.73,43.73,0,0,1-4.85-.33c-1.6-.18-3.24-.39-4.8-.65s-3.18-.57-4.75-.93Z"/><path class="cls-1" d="M432.41,175.77s-3.49-19.35-7.2-16.46"/><path class="cls-1" d="M235,0S-67.47,10.52,43.87,297h-21S-102.74,19.8,235,0Z"/><path class="cls-1" d="M115.49,422.69s138.26,151.24,353.09,148c0,0-207.87-12.06-331.75-148Z"/><path class="cls-2" d="M522.86,112.52a122,122,0,0,0-45.7-5.11S441,78.18,376.94,65l-1.39-25.75S477.16,70.52,522.86,112.52Z"/><path class="cls-2" d="M221.74,57.54s84.68-16,137.33,2.78l10.2,20.88-3.48-44.78s-81-28.76-173.28-11.16Z"/><path class="cls-2" d="M231.94,81.2l-50.56-55s-99.3,21.11-129,96.27l48.95,24.62s25.26-63.57,99.3-83.75Z"/><path class="cls-2" d="M48.21,130.38S15.73,207.64,65.14,297h44.54S79.06,228.51,94.83,163.09L124.07,168Z"/><path class="cls-2" d="M162.11,422.69s53.83,50.11,100.69,71.46l20.41-15.08s-59.59-35.73-76.55-56.36Z"/><path class="cls-2" d="M271.84,498.32s80.74,40.37,133.67,47.33l4.64-15.31s-82.86-19.72-112.55-43.86l13.22-17.63Z"/><path class="cls-2" d="M414.06,549.36s77.26,19,158.7-4.87l-6.28-14.61s-90.94,20-140.12,4.18V509Z"/><path class="cls-2" d="M581.32,541.47s67.52-20.87,91.18-65.42H653.71s-33.87,39.44-70.29,49.65l-14.84-15.31Z"/><path class="cls-2" d="M185.48,96.55c.29,1.22,3.89,5.71,11.81,14.83,9.52,10.94,11.77,12.82,14.9,12.55a9.23,9.23,0,0,0,4-1.44,4.61,4.61,0,0,0,1.74-2.78c.45-2.29,0-3.71-1.78-5.69-2.23-2.49-5.11-4.34-10.64-6.8-6.84-3.08-8-3.78-15.88-9.72-1.78-1.33-3.07-1.94-3.73-1.8C185.47,95.81,185.36,96,185.48,96.55Zm24.14,21.88a16.2,16.2,0,0,0,2.83-.85,5.9,5.9,0,0,1,1.41-.49c.23.09.26,1,.07,1.52-.53,1.29-3.13,2.11-4.76,1.47-.84-.33-1.53-1-1.23-1.25A8.93,8.93,0,0,1,209.62,118.43Z"/><path class="cls-2" d="M156.29,128.33c.47.6,1.58,1.94,2.48,2.94A99.88,99.88,0,0,1,168,144.06c5.49,8.66,9.47,12.72,13.42,13.69a8.55,8.55,0,0,0,6.66-1.18,4.62,4.62,0,0,0,1.78-3.29c.15-2.5-1.43-6.35-3.65-8.88-2.07-2.35-4.49-3.89-9.63-6.23A120.39,120.39,0,0,1,162.88,131c-5.23-3.09-7.26-4.17-7.36-3.92A5.28,5.28,0,0,0,156.29,128.33ZM173,143.81a34.34,34.34,0,0,1,2.8,2.73c3.44,3.59,4.65,4.7,6.21,5.63,1,.59,1.29,1,1.13,1.34-.27.65-1.85,0-4.11-1.8-3.49-2.75-6.23-5.83-6.48-7.35C172.39,143.58,172.46,143.51,173,143.81Zm13.55,5.48a2.08,2.08,0,0,1,1.18,1.77c.09.68.08.74-.21.82-.53.13-1.37-.65-1.62-1.53C185.65,149.64,186,149.13,186.51,149.29Z"/><path class="cls-2" d="M156.28,102.67c.25,1,3.34,4.94,10.2,12.82,8.23,9.45,10.18,11.07,12.91,10.85a8.12,8.12,0,0,0,3.46-1.25,3.84,3.84,0,0,0,1.51-2.4c.39-2,0-3.23-1.53-4.92-1.94-2.16-4.42-3.76-9.2-5.88-5.92-2.66-6.94-3.24-13.73-8.39-1.53-1.15-2.65-1.69-3.24-1.56C156.26,102,156.17,102.19,156.28,102.67Zm20.86,18.91a13,13,0,0,0,2.44-.74,5.78,5.78,0,0,1,1.23-.43c.2.09.22.9.05,1.3-.46,1.13-2.7,1.83-4.11,1.3-.72-.28-1.29-.9-1.06-1.09A8,8,0,0,1,177.14,121.58Z"/><path class="cls-2" d="M312.4,70.5c-.52,1.25-.23,7.45,1,20.45,1.43,15.6,2.23,18.67,5.19,20.43a9.81,9.81,0,0,0,4.42,1.29,4.84,4.84,0,0,0,3.28-1.33c1.84-1.73,2.35-3.24,2-6.11-.38-3.59-1.74-7-5-12.68-4.05-7-4.63-8.42-7.77-18.54-.71-2.29-1.45-3.66-2.12-3.94C312.87,69.84,312.63,70,312.4,70.5Zm7.32,34.44a16.84,16.84,0,0,0,3,1,6.57,6.57,0,0,1,1.55.46c.14.22-.42,1.07-.91,1.38-1.29.81-4.07-.13-5.09-1.73-.53-.81-.69-1.87-.29-1.86A9.89,9.89,0,0,1,319.72,104.94Z"/><path class="cls-2" d="M409.57,73.43c-.57.64-1.8,2.13-2.76,3.34a110,110,0,0,1-12.3,12.86c-8.47,7.86-12.16,13.11-12.42,17.69a9.57,9.57,0,0,0,2.67,7.12,5.22,5.22,0,0,0,4,1.3c2.8-.33,6.74-2.87,9.07-5.83,2.19-2.78,3.42-5.79,5-12a134.31,134.31,0,0,1,5.08-16.65c2.36-6.44,3.15-8.9,2.84-9A5.66,5.66,0,0,0,409.57,73.43ZM395.82,95.07a40.93,40.93,0,0,1-2.45,3.66c-3.29,4.54-4.26,6.12-5,8-.46,1.19-.81,1.62-1.25,1.53-.79-.16-.35-2,1.15-4.93,2.34-4.43,5.19-8.1,6.84-8.68.83-.3.93-.24.69.38Zm-3.27,16.14c0,.65-.79,1.38-1.72,1.68-.73.23-.81.24-.95-.07-.26-.57.44-1.65,1.36-2.11C392,110.34,392.58,110.57,392.55,111.21Z"/><path class="cls-2" d="M431.11,78.48c-1,.43-4.25,4.18-10.75,12.36-7.77,9.81-9.07,12-8.32,14.66a7.8,7.8,0,0,0,1.85,3.18,3.88,3.88,0,0,0,2.63,1,4.94,4.94,0,0,0,4.53-2.4c1.76-2.29,2.89-5,4.11-10.12,1.53-6.3,1.94-7.42,5.75-15,.86-1.72,1.19-2.92,1-3.45C431.73,78.38,431.56,78.28,431.11,78.48Zm-14.81,24a13.43,13.43,0,0,0,1.17,2.26,5.52,5.52,0,0,1,.65,1.13c-.05.21-.84.39-1.3.3-1.2-.25-2.28-2.33-2-3.82.14-.76.65-1.46.87-1.23a7.71,7.71,0,0,1,.6,1.34Z"/><path class="cls-1" d="M388,308.9h83.56L456.1,258.69s0-4.73,4.54-4.94,234.15-14,246.7-12.55l1.78,1.49,1.64-1.23s44-6.2,60.34-4.89c0,0,50.08-2.39,84.57,17.75,0,0,37.27,13,41.38,54.58,0,0,2.06-19.76-4.94-31.48s-22.84-24.7-62.34-39.31c0,0-28.63-10.07-96.09-2.88l-22.63,3.29-2.12-1.12-1.62,1.85-9.2.8s-313.2,4.24-334.18,4.85c0,0-15.43.31-2.47,19.86C361.46,264.76,378.71,299.43,388,308.9Z"/><path class="cls-1" d="M709.45,242c.06,2.4,0,4.8,0,7.21l-.13,7.2-.27,14.4-.55,28.81-.09-28.82V249.15c0-2.39,0-4.8.1-7.2a.49.49,0,1,1,1,0Z"/><path class="cls-1" d="M709.05,268.33l23.67.39-23.65.9a.65.65,0,1,1-.06-1.29Z"/><path class="cls-1" d="M362.75,266.88l-39.21-1.94h39.25a1,1,0,1,1,0,1.94Z"/><path class="cls-1" d="M202,275.69a47.56,47.56,0,0,1,12.15-17.33,59.66,59.66,0,0,1,18.36-11.17,74.34,74.34,0,0,1,20.9-4.88,87.35,87.35,0,0,1,10.73-.3c1.79.06,3.58.15,5.36.32.89.07,1.77.19,2.66.3s1.78.23,2.66.38a93,93,0,0,1,20.64,5.65,82.25,82.25,0,0,1,18.67,10.55,61.68,61.68,0,0,1,8,7.25,50.55,50.55,0,0,1,6.42,8.69,38,38,0,0,1,5.33,20.51.24.24,0,0,1-.25.22.22.22,0,0,1-.22-.19,46.55,46.55,0,0,0-7.83-18.64,56,56,0,0,0-6.53-7.63,66,66,0,0,0-7.68-6.48,77.59,77.59,0,0,0-17.78-9.56,92.61,92.61,0,0,0-19.56-5.22c-.84-.13-1.67-.26-2.51-.35s-1.67-.21-2.52-.27c-1.68-.18-3.37-.3-5.06-.39a85.25,85.25,0,0,0-10.11.13,74.87,74.87,0,0,0-19.74,4.1,62,62,0,0,0-9.16,4.18,68.26,68.26,0,0,0-8.39,5.58c-.69.5-1.33,1.05-1.94,1.59l-1,.82c-.31.29-.65.58-.94.86l-1,.85-.9.88c-.61.59-1.22,1.2-1.8,1.82a95.07,95.07,0,0,0-6.71,7.89.15.15,0,0,1-.21,0A.14.14,0,0,1,202,275.69Z"/><path class="cls-1" d="M727.07,283.65a47.5,47.5,0,0,1,12.16-17.34,59.7,59.7,0,0,1,18.31-11.17,74.49,74.49,0,0,1,20.91-4.88,89.38,89.38,0,0,1,10.73-.3c1.78,0,3.57.16,5.35.32.9.07,1.78.19,2.67.3s1.77.24,2.66.38a92.47,92.47,0,0,1,20.64,5.66,82.56,82.56,0,0,1,18.67,10.53,61.11,61.11,0,0,1,8,7.26,50.08,50.08,0,0,1,6.43,8.69,38,38,0,0,1,5.33,20.51.24.24,0,0,1-.22.25.24.24,0,0,1-.25-.22A46.77,46.77,0,0,0,850.61,285a56.5,56.5,0,0,0-6.52-7.63,68,68,0,0,0-7.69-6.48,77.28,77.28,0,0,0-17.77-9.55,92,92,0,0,0-19.56-5.23c-.84-.13-1.67-.25-2.52-.34s-1.67-.22-2.52-.28c-1.67-.18-3.36-.31-5-.38a83.36,83.36,0,0,0-10.12.13,74.78,74.78,0,0,0-19.73,4.09,61.5,61.5,0,0,0-9.16,4.18,67.55,67.55,0,0,0-8.42,5.59c-.65.5-1.3,1-1.95,1.59l-1,.81c-.31.29-.65.58-.94.86l-1,.84-.92.9c-.61.59-1.21,1.19-1.79,1.81a95.07,95.07,0,0,0-6.71,7.89.15.15,0,1,1-.26-.14Z"/><path class="cls-1" d="M848.05,272.06l35.84,1.6a.65.65,0,0,1,.65.65v0a.65.65,0,0,1-.65.61h0l-35.76-2.72a.08.08,0,0,1-.07-.09h0A.08.08,0,0,1,848.05,272.06Z"/><path class="cls-1" d="M147.75,208.34a8.54,8.54,0,0,1,4.08,5,5.71,5.71,0,0,1,.23,1.09l.07.55.07.48a4.22,4.22,0,0,0,.65,1.75,6.16,6.16,0,0,0,1.29,1.45,11.83,11.83,0,0,0,3.51,1.94h0a.33.33,0,0,1,.2.4h0a.31.31,0,0,1-.37.21,10.58,10.58,0,0,1-2.05-.71,9.13,9.13,0,0,1-1.87-1.13,5.9,5.9,0,0,1-2.39-3.76l-.07-.55-.07-.49a7.66,7.66,0,0,0-.21-1,8,8,0,0,0-.75-1.81,11,11,0,0,0-2.59-3h0a.26.26,0,1,1,.28-.43h0Z"/><path class="cls-1" d="M139.27,223.72c1.94.73,3.89,1.4,5.88,2s4,1.22,6,1.75A84.76,84.76,0,0,0,163.36,230a.07.07,0,0,1,.07.07h0a.06.06,0,0,1-.08.06A86.44,86.44,0,0,1,151,228.2c-2-.46-4.07-.95-6.09-1.51s-4-1.13-6-1.79a.64.64,0,0,1-.14-.9.65.65,0,0,1,.53-.27h0Z"/><path class="cls-1" d="M138.36,222.06c.52-.5,1-1.13,1.51-1.71a9.86,9.86,0,0,1,.85-.86,2.15,2.15,0,0,1,1.22-.58,8.49,8.49,0,0,1,2.32.65l2.21.7,8.81,2.81,17.62,5.63-.12,0a38.54,38.54,0,0,0,6,.31,44.54,44.54,0,0,0,6-.49,40.94,40.94,0,0,0,5.83-1.29c.48-.13,1-.29,1.42-.46l.71-.24c.23-.08.46-.16.74-.24a31.91,31.91,0,0,1,3.17-.79c4.11-.79,8.2-1.34,12.31-1.84s8.2-.93,12.31-1.3c16.42-1.49,32.88-2.25,49.36-2.5,8.24-.08,16.48-.06,24.72.15s16.49.6,24.71,1.3,16.44,1.56,24.61,2.84a159.15,159.15,0,0,1,24.12,5.57.32.32,0,0,1,.21.4h0a.32.32,0,0,1-.38.21h0a211.34,211.34,0,0,0-24.28-3.67c-8.13-.84-16.31-1.33-24.48-1.72s-16.37-.59-24.57-.64-16.38-.1-24.58,0q-24.62.31-49.15,1.72c-4.08.23-8.17.51-12.24.84s-8.16.72-12.15,1.3a27.9,27.9,0,0,0-2.84.58c-.2.05-.47.12-.72.2l-.77.23c-.5.15-1,.3-1.53.42a42.53,42.53,0,0,1-6.23,1.09,47.42,47.42,0,0,1-6.3.26,44.45,44.45,0,0,1-6.3-.58h0l-.12,0-17.41-6.23L146.22,221l-2.18-.77a9,9,0,0,0-2.07-.7,1.54,1.54,0,0,0-.83.42,8.3,8.3,0,0,0-.79.78c-.52.55-1,1.16-1.52,1.76a.33.33,0,0,1-.46,0,.32.32,0,0,1,0-.46h0Z"/><path class="cls-1" d="M139.92,203.85c3.27,1.4,6.55,2.78,9.8,4.21,2.69,1.19,6.34,2.23,8.62,4.12,4.27,3.57,9.49,6.23,15.12,6.59,8,.51,20.68-2.06,20.68-2.06s-14.4-1.44-21-1.54c-3.06,0-7.16-1.06-9-3.82-.49-.76-1.62-.93-2.36-1.3-1-.53-2-1-3.06-1.51a26.68,26.68,0,0,0-6.72-2.29C147,205.4,139.92,203.85,139.92,203.85Z"/><path class="cls-1" d="M129.74,195.93s4.12,3.81,15.13,5.35l27.06.72s6.47.82,16.84,7.61l10.36,6.28-25.41-10-24.28-1.34S132,201.08,129.74,195.93Z"/><path class="cls-1" d="M451.87,243.56,442.15,215l-.17-.51h.54L501.13,216l58.6,1.62,58.61,1.81q14.64.48,29.29,1l14.65.65c2.45.11,4.88.23,7.32.38l3.67.24,1.83.15.93.1.47.06.26,0,.14,0,.24.09-.29-.07c4-.08,8-.13,11.93-.06,2,0,4,.07,6,.16,1,0,2,.1,3,.19l1.5.18a4.94,4.94,0,0,1,1.55.41l-.31.56a5.84,5.84,0,0,0-1.3-.3c-.48-.06-1-.1-1.46-.13-1-.07-2-.11-3-.13-2-.05-4-.05-5.94,0-4,0-7.94.11-11.9.24l-.28-.07h-.09l-.2,0-.43,0L675,223l-1.83-.12-3.65-.2-7.31-.33-14.64-.56-29.29-1.05-58.63-1.93-117.2-3.58.37-.5,9.63,28.63Z"/><path class="cls-1" d="M182.91,259.54q-12.51-1.16-25-2.39c-5.46-.55-11.49-.6-16.84-2.06-1.25-.35-6-2.1-7-1.18-.28.25-.36,1.22-.44,1.56a64.28,64.28,0,0,0-1.17,10.63,91.59,91.59,0,0,1-1.38,11.44c-.12.61-1.61,8.65-1.91,8.62l6.89.85,5.43.65c1.45.17,4.22,1,5.54.51a2.36,2.36,0,0,0,.75-.54c4.39-4.2,5.67-11.12,7.83-16.52l4.11-10.49s0-2.47,3.58-1.65,43.56,2.73,43.56,2.73Zm-41.19,18.78c-.52,1.3-1,3.64-2.05,4.66-.41.41-3.19-.72-3.19-.72a4.6,4.6,0,0,1,.41-4.22,10.84,10.84,0,0,0,.69-2.13c.36-1,.75-1.92,1.16-2.87.79-1.84,1.66-3.64,2.59-5.42,1.84-3.56,3.89-7,5.86-10.46h2c2,0,.46,2.26.46,2.26s-5.14,11.32-6.07,14c-.58,1.63-1.22,3.26-1.87,4.89ZM158.06,261s-5.15,11.31-6.08,14c-.57,1.65-1.2,3.28-1.85,4.9-.53,1.3-1,3.65-2.06,4.66-.41.41-3.18-.72-3.18-.72a4.61,4.61,0,0,1,.41-4.22,10.3,10.3,0,0,0,.68-2.12c.36-1,.75-1.93,1.16-2.88.79-1.84,1.67-3.64,2.59-5.42,1.84-3.55,3.89-7,5.83-10.46h2C159.58,258.69,158.06,261,158.06,261Z"/><path class="cls-1" d="M165.83,234.49l-22.67-1s-4,1.46-10,11c0,0-2.59,5.22,2.36,7.8,0,0,16.06,3.6,26,2.88,0,0,4.63-5.24,11.33-17C172.85,238.22,174.8,235.65,165.83,234.49Zm-9.47,19.14s-17.08-1.54-17.79-2.26a4.76,4.76,0,0,1-3.5-3.5s22,2.36,24.38,3.5c0,0,3,2.56-3.06,2.28Zm8.08-16.77-2.11.52a23.66,23.66,0,0,0-5.66,5.34,9,9,0,0,1-3.95,3.6c-6.53.52-18.55-.65-18.55-.65l10.3-11s13.33.11,13.64.92,4.32.11,5.66,0,.69,1.3.69,1.3Z"/><path class="cls-1" d="M582.41,164.35s-104.29-9.26-218.51,27.77L350.17,206.9s-4.79,3.74,1.69,5.6l90.63,2.36,260.29,9.67S642.59,173.6,582.41,164.35ZM470.07,212.66s-7.57-.24-15.05,0-10-4.33-10-4.33L438.46,185c-.46-5.1,5.4-6.72,5.4-6.72s9.1-2.39,15.28-3.62,6.87,3.16,6.87,3.16,4.53,21,6.24,28.4S470.07,212.66,470.07,212.66Zm9.88.2a5.91,5.91,0,0,1-4.48-4.54l-6.79-27.77c-2.93-11.27,50-14.05,80.4-14s47.07,4.11,63,8.9,54.94,26.69,61.73,32.71,2.16,11.06,2.16,11.06Z"/><path class="cls-1" d="M654.9,199.26a4.5,4.5,0,0,0-3.56,1.63,14.86,14.86,0,0,0-1.7,3.77l-1.41,4.11c-.49,1.37-1,2.74-1.53,4.1v.06a2.21,2.21,0,0,0-.15.5,2.62,2.62,0,0,0,0,.56,2,2,0,0,0,.45,1.08,4.18,4.18,0,0,0,1,.89c.2.12.42.25.64.36s.46.2.69.32v0h0a5.1,5.1,0,0,1-.78,0l-.77-.14a4.15,4.15,0,0,1-1.49-.73,2.92,2.92,0,0,1-1-1.5,3.28,3.28,0,0,1-.14-.93,3.63,3.63,0,0,1,.14-1v.07c.36-1.45.73-2.87,1.2-4.27a44.36,44.36,0,0,1,1.62-4.14c.3-.65.65-1.36,1-2a6.87,6.87,0,0,1,1.43-1.94A4.78,4.78,0,0,1,655,199a.13.13,0,0,1,.08.17.13.13,0,0,1-.12.1Z"/><path class="cls-1" d="M732.63,225.3a114,114,0,0,0,16.84,2.39c2.83.19,5.68.23,8.53.37s5.69.28,8.53.44q17.06,1,34.09,2.32s0,0,0,0h0s0,0,0,0h0l-17.05-1c-5.69-.32-11.37-.64-17.06-.9-2.84-.13-5.68-.26-8.53-.35s-5.68-.12-8.54-.31a105.35,105.35,0,0,1-16.95-2.42.33.33,0,0,1-.24-.39h0a.33.33,0,0,1,.38-.25Z"/><path class="cls-1" d="M772.24,225.48c2,.1,4,.28,6,.44l6,.59c4,.43,8,.94,12,1.49q12,1.68,24,3.68c16,2.66,31.82,5.77,47.54,9.53q11.8,2.82,23.43,6.3c7.77,2.33,15.43,4.88,23,7.82a170.37,170.37,0,0,1,22,10.22,87.36,87.36,0,0,1,10.22,6.66A39.38,39.38,0,0,1,955,281a.1.1,0,0,1,0,.14h0a.11.11,0,0,1-.13,0,88,88,0,0,0-9.2-7.71,96.23,96.23,0,0,0-10.1-6.48,169.66,169.66,0,0,0-21.88-10.07,380.29,380.29,0,0,0-46.23-13.95c-15.65-3.83-31.49-7-47.39-9.77q-11.93-2.06-23.9-3.79c-8-1.15-16-2.29-24-3.55a.13.13,0,0,1-.11-.15.13.13,0,0,1,.13-.14Z"/><path class="cls-1" d="M953.17,281.4c-4-4.63-37.57-12-37.57-12L885,264.43s-2.66,1.23-.35,3.64S895,279,896.13,288.8L938,293.07s3.4,1,5.25-5.9l.77-6.87s2.47-1.69,6.79,1.16,5.09,15.13,5.09,15.13l.7,4.78c.39,2.51.77,5,1.16,7.51a58.3,58.3,0,0,0,1.08-8.74C959,293.93,957.33,286.21,953.17,281.4Zm-50.82-8.35c.35-1.14,1.22.12,1.22.12l2.29,2.87,4.49,6.19a5.13,5.13,0,0,1,1.22,1.94c.1.77-.8.85-.8.85l-1.53-1.2-6.15-8.54A2.49,2.49,0,0,1,902.35,273.05Zm6,1.25c.35-1.13,1.22.12,1.22.12l2.29,2.87,4.5,6.19a5.12,5.12,0,0,1,1.21,1.95c.1.77-.75.81-.75.81l-1.53-1.19-6.15-8.55s-1.17-1.06-.82-2.2Zm30.3,14.9a10.94,10.94,0,0,1-6.72,1.35l-9.64-1s-10.76-1.35-12.73-1.69-.46-1.43-.46-1.43,5.25.27,15.7,1.51,12.27,0,12.27,0a8.54,8.54,0,0,0,1.74-4.91,3.39,3.39,0,0,0-3.09-3.74l-19.52-5.13s-21.45-4.13-25-4.9-1.82,1.2-1.82,1.2,5,7.77,7.13,11.22-.73,3.28-.73,3.28c-.6-4.88-6.87-12.69-8.8-15.12s0-2.7,0-2.7l4.28.23s36.62,7.6,42.59,9.18,7.07,3.48,7.13,5.75-2.33,6.89-2.33,6.89Z"/><path class="cls-1" d="M749.39,217.59c-4.79-2.93-95.53-51.39-108.18-53.55,0,0-6.29-2.17-10.69-.72s-5.62,3.88-5.62,3.88,64.92,31.69,96.25,57.31H765S754.17,220.52,749.39,217.59Zm1.39,5.55H728.25c-5.25-.15-5.25-.92-5.25-.92C704.62,206.58,632.26,169,632.26,169s-2.22-.51.43-2.59,7.31-.5,7.31-.5c21.14,6,104.78,52.16,109.26,54s1.51,3.23,1.51,3.23Z"/><path class="cls-1" d="M197.38,211.82c2.26-.41,4.53-.87,6.77-1.29s4.54-.9,6.75-1.4,4.49-1,6.71-1.53c1.11-.29,2.21-.58,3.3-.9l3.34-.9,26.67-7.22,26.69-7.21,26.66-7.4c17.76-4.91,35.56-9.66,53.37-14.46,2.24-.53,4.53-.93,6.76-1.41l6.77-1.36L384.78,164l27.12-5.47,3.39-.68,1.69-.34,1.74-.29,6.84-1.06q6.84-1,13.7-2c9.14-1.24,18.29-2.36,27.48-3.27q6.88-.71,13.81-1.18l6.93-.38,6.91-.27c9.23-.32,18.45-.45,27.66-.5s18.44,0,27.66.15c4.61.09,9.21.16,13.84.36,2.36.13,4.64.45,6.94.74s4.57.65,6.85,1q13.7,2,27.29,4.49c4.54.83,9.07,1.68,13.6,2.64,2.26.48,4.54,1,6.75,1.55,1.13.28,2.25.57,3.35.91a16.23,16.23,0,0,1,3.31,1.29l-.07,0,4.09,1.38a.31.31,0,0,1,.19.41.32.32,0,0,1-.39.2l-4.12-1.3h-.08a16.66,16.66,0,0,0-3.15-1.13c-1.1-.3-2.21-.58-3.33-.83-2.24-.51-4.48-1-6.75-1.41-4.53-.88-9.06-1.66-13.6-2.42q-13.6-2.24-27.31-4.06c-2.28-.3-4.53-.59-6.84-.85s-4.57-.53-6.81-.65c-4.53-.15-9.18-.18-13.78-.21q-13.8-.09-27.6.13c-9.21.14-18.41.37-27.59.77l-6.88.35-6.88.45c-4.56.35-9.14.75-13.71,1.24-9.14.95-18.26,2.11-27.37,3.4q-6.82,1-13.64,2l-6.81,1.1-1.67.28-1.68.35-3.38.69-54.05,11.2c-17.79,4.74-35.57,9.52-53.39,14.14-8.9,2.34-17.81,4.68-26.73,6.94l-26.79,6.75-26.83,6.69a192.15,192.15,0,0,1-27.21,5.13.32.32,0,0,1-.36-.28A.33.33,0,0,1,197.38,211.82Z"/><path class="cls-1" d="M70.56,403.81Q44.93,406.1,28,406.11q-11.28,0-16.56-5.29T6.17,384.26v-36.8q0-12.07,5.46-17.54t17.54-5.46H70.56v16.1H33.77q-6.9,0-6.91,6.9v36.8a5.64,5.64,0,0,0,1.56,4.19,5.33,5.33,0,0,0,4,1.56c1.62,0,3.38,0,5.29-.06s3.92-.1,6-.17l6.27-.23q3.16-.12,8.17-.46t12.47-.81Z"/><path class="cls-1" d="M94.71,405H72.29l30.47-80.5h23L156.24,405H133.81l-5.17-14.38H99.89Zm10.35-29.33h18.4l-9.2-27Z"/><path class="cls-1" d="M162.56,324.46h48.3q12.07,0,17.54,5.46t5.46,17.54v10.35q0,9.54-3.16,14.83t-10.06,7L235,405H212.59l-13.23-24.15h-16.1V405h-20.7Zm50.6,23q0-6.9-6.9-6.9h-23v24.15h23q6.9,0,6.9-6.9Z"/><path class="cls-1" d="M339.66,324.46l13.8,51.75,12.08-51.75H388L366.11,405H344.26l-13.8-50-13.8,50H294.81L273,324.46h22.43l12.07,51.75,13.8-51.75Z"/><path class="cls-1" d="M408.66,405H386.23l30.48-80.5h23L470.18,405H447.76l-5.17-14.38H413.84ZM419,375.63h18.4l-9.2-27Z"/><path class="cls-1" d="M474.09,388.28Q505.61,390,516.76,390a5.36,5.36,0,0,0,5.75-5.75V373.91H496.06q-12.07,0-17.54-5.47t-5.46-17.53v-3.45q0-12.07,5.46-17.54t17.54-5.46h40.36v16.1H500.66q-6.9,0-6.9,6.9v2.3q0,6.9,6.9,6.9h20.7q11.26,0,16.56,5.29t5.29,16.56v5.75q0,11.26-5.29,16.56t-16.56,5.29q-5.86,0-12.42-.23l-10.58-.46q-11.73-.59-24.27-1.61Z"/><path class="cls-1" d="M624.28,405h-20.7V372.18H574.83V405h-20.7v-80.5h20.7v31.62h28.75V324.46h20.7Z"/><path class="cls-2" d="M673.73,324.46H722q12.08,0,17.54,5.46T745,347.46V359q0,12.07-5.46,17.53T722,382h-27.6v23h-20.7Zm50.6,23q0-6.9-6.9-6.9h-23v25.3h23q6.9,0,6.9-6.9Z"/><path class="cls-2" d="M819.78,405H756v-80.5h63.82v16.1H776.66v15.52h33.92v16.1H776.66v16.68h43.12Z"/><path class="cls-2" d="M829.56,324.46h48.3q12.07,0,17.53,5.46t5.47,17.54v10.35q0,9.54-3.17,14.83t-10.06,7L902,405H879.58l-13.22-24.15h-16.1V405h-20.7Zm50.6,23q0-6.9-6.9-6.9h-23v24.15h23q6.9,0,6.9-6.9Z"/><path class="cls-2" d="M933.63,405h-20.7v-80.5h63.82v16.1H933.63v19h33.92v16.1H933.63Z"/><path class="cls-2" d="M1049.2,405H985.38v-80.5h63.82v16.1h-43.12v15.52H1040v16.1h-33.92v16.68h43.12Z"/><path class="cls-2" d="M1079.68,405H1059v-80.5h20.7v31.62H1090L1108,324.46h21.85l-22.54,39.67L1129.7,405h-21.85L1090,372.18h-10.35Z"/><path class="cls-2" d="M1176.39,405h-20.7v-64.4h-24.15v-16.1h69v16.1h-24.15Z"/><path class="cls-2" d="M443.84,83.53c-.38.31-.85,1.1-3.07,5.19-4.71,8.62-8,15-8.16,15.54a.63.63,0,0,0,0,.31c.06.14.13.18.25.17s.71-.74,1.62-2.51c1.76-3.43,2.85-5.45,4.27-7.94,3.31-5.74,5.28-9.45,5.44-10.24.07-.34,0-.65-.12-.69A1,1,0,0,0,443.84,83.53Z"/><path class="cls-2" d="M454.56,88.76c-.28.06-.57.41-2,2.51-3.24,4.64-8.49,12.81-9.07,14.07-.28.59-.06.93.52.8s1-.6,3.35-4.26c2.92-4.57,7.47-12.12,7.72-12.82C455.13,88.8,454.94,88.69,454.56,88.76Z"/><path class="cls-2" d="M113.89,85.28a10.86,10.86,0,0,0,1.38,1.5c4.19,3.93,23.75,20.67,26.9,23,1.82,1.36,2.62.52,1.15-1.21-.31-.37-2.11-1.94-4-3.54-8.93-7.39-13-10.93-18-15.88a47.08,47.08,0,0,0-4.67-4.26c-1.14-.88-1.68-1.08-2.28-.83S113.54,84.71,113.89,85.28Z"/><path class="cls-2" d="M129.12,70.23c.42.93,1.75,2.21,8.7,8.3,14.71,13,25.62,22.15,26.76,22.61a1,1,0,0,0,.64,0,.48.48,0,0,0,.42-.47c.08-.55-1.1-1.78-4.16-4.32-5.91-4.91-9.36-7.9-13.6-11.79-9.72-9-16.1-14.41-17.58-15-.65-.26-1.3-.23-1.4,0A1.48,1.48,0,0,0,129.12,70.23Z"/><path class="cls-2" d="M145.25,63.64c.07.54.8,1.26,5.25,5.06,9.8,8.37,27.2,22.4,29.94,24.16,1.3.82,2.11.6,1.95-.54s-1.14-2.17-8.94-8.42c-9.71-7.8-25.87-20.16-27.4-21C145.47,62.6,145.17,62.88,145.25,63.64Z"/><path class="cls-2" d="M117.77,106.72c0,.93.2,1.1,5.25,5.23,12.49,10.23,17.67,14.2,19.49,14.93.65.27,1.45.27,1.56,0s-.48-1.34-.94-1.83a19.76,19.76,0,0,0-3.74-3,140.29,140.29,0,0,1-13.06-10.37c-2.26-1.94-4.63-4-5.26-4.45-1.44-1.12-2.49-1.69-2.76-1.54A1.07,1.07,0,0,0,117.77,106.72Z"/><path class="cls-2" d="M287.36,32.65c-.09.73.2,2,1.95,8.63,3.72,14,6.6,24.12,7.09,24.89a.76.76,0,0,0,.36.28.31.31,0,0,0,.43-.07c.25-.28,0-1.51-.81-4.32-1.6-5.45-2.48-8.71-3.48-12.81-2.3-9.48-3.95-15.42-4.59-16.44-.27-.43-.65-.71-.83-.61A1.21,1.21,0,0,0,287.36,32.65Z"/><path class="cls-2" d="M299.69,29.79c-.18.38,0,1.22,1.3,5.94,2.92,10.41,8.42,28.34,9.51,30.89.5,1.18,1.14,1.47,1.51.65s.16-1.94-2.34-10c-3.11-10-8.52-26.23-9.17-27.55C300.27,29.24,300,29.27,299.69,29.79Z"/><path class="cls-2" d="M267.86,66.07c0,.77.16,2.51.29,3.88a99.66,99.66,0,0,1,0,16.08c-.61,10.42.26,16.15,3,19.3a8.6,8.6,0,0,0,6.2,3,4.65,4.65,0,0,0,3.42-1.66c1.62-1.94,2.59-6.08,2.27-9.5-.31-3.17-1.39-5.9-4.24-10.88a123.12,123.12,0,0,1-7.08-14c-2.49-5.67-3.52-7.77-3.75-7.63A4.9,4.9,0,0,0,267.86,66.07Zm4.53,22.71a34.59,34.59,0,0,1,.7,3.92c.7,5,1.05,6.65,1.77,8.36.44,1,.48,1.56.15,1.77-.62.39-1.51-1.12-2.34-3.94-1.24-4.34-1.65-8.53-1-9.93.37-.68.46-.73.69-.18Zm7.94,12.59a2.11,2.11,0,0,1-.08,2.18c-.33.6-.37.64-.65.54-.51-.21-.73-1.35-.42-2.22.24-.71.8-1,1.16-.5Z"/><path class="cls-2" d="M285,58.49c-.42,1-.18,5.95.78,16.36,1.15,12.48,1.78,14.94,4.13,16.34a7.85,7.85,0,0,0,3.53,1,4,4,0,0,0,2.63-1.07c1.47-1.38,1.88-2.59,1.64-4.89-.31-2.88-1.4-5.63-4-10.15-3.24-5.61-3.71-6.71-6.23-14.83-.57-1.84-1.16-2.93-1.7-3.16C285.37,58,285.19,58.05,285,58.49ZM290.87,86a13.05,13.05,0,0,0,2.42.83,6.12,6.12,0,0,1,1.24.38c.11.17-.34.85-.73,1.1-1,.65-3.24-.1-4.08-1.38-.42-.65-.55-1.5-.23-1.49a7.6,7.6,0,0,1,1.38.58Z"/><path class="cls-2" d="M767.78,427.82H793q6.3,0,9.15,2.85t2.85,9.15v6q0,6.3-2.85,9.15T793,457.82h-14.4v12h-10.8Zm26.4,12q0-3.6-3.6-3.6h-12v13.2h12q3.6,0,3.6-3.6Z"/><path class="cls-2" d="M855.74,458.42q0,6.3-2.85,9.15t-9.15,2.85h-15q-6.3,0-9.15-2.85t-2.85-9.15v-19.2q0-6.3,2.85-9.15t9.15-2.85h15q6.3,0,9.15,2.85t2.85,9.15Zm-10.8-19.2q0-3.6-3.6-3.6h-10.2q-3.6,0-3.6,3.6v19.2q0,3.6,3.6,3.6h10.2q3.6,0,3.6-3.6Z"/><path class="cls-2" d="M892.7,427.82q6.78,0,10.29,3.51t3.51,10.29V456q0,6.78-3.51,10.29t-10.29,3.51H869.3v-42Zm3,13.8q0-5.4-5.4-5.4H880.1v25.2h10.2q5.4,0,5.4-5.4Z"/><path class="cls-2" d="M951.86,436.22l-21,25.2h21v8.4h-34.2v-8.4l21-25.2h-21v-8.4h34.2Z"/><path class="cls-2" d="M981.92,457.22l10.2-29.4h11.7l-15.9,42h-12l-15.9-42h11.7Z"/><path class="cls-2" d="M1034.18,469.82h-21.6v-8.4h5.4v-25.2h-5.4v-8.4h21.6v8.4h-5.4v25.2h5.4Z"/><path class="cls-2" d="M1078.94,436.22l-21,25.2h21v8.4h-34.2v-8.4l21-25.2h-21v-8.4h34.2Z"/><path class="cls-2" d="M1114.7,427.82c4.51,0,8,1.17,10.29,3.51s3.51,5.77,3.51,10.29V456q0,6.78-3.51,10.29c-2.34,2.34-5.78,3.51-10.29,3.51h-23.4v-42Zm3,13.8q0-5.4-5.4-5.4h-10.2v25.2h10.2q5.4,0,5.4-5.4Z"/></g></g></svg>